<!-- Generated by IcoMoon.io -->
<svg version="1.1" xmlns="http://www.w3.org/2000/svg" width="32" height="32" viewBox="0 0 32 32">
<title>globe</title>
<path fill="#5d6393" d="M18.551 29.607c1.676-2.226 4.082-6.444 4.32-12.399h6.942c-0.436 6.278-5.16 11.381-11.262 12.399v0zM2.831 17.209h6.941c0.238 5.955 2.645 10.172 4.32 12.399-6.102-1.018-10.827-6.12-11.261-12.399v0zM14.416 2.88c-1.607 2.469-4.325 7.35-4.636 12.448h-6.949c0.442-6.389 5.326-11.561 11.585-12.448v0zM20.99 17.209c-0.283 6.361-3.324 10.594-4.67 12.159-1.348-1.56-4.384-5.775-4.666-12.159h9.336zM11.664 15.328c0.344-4.946 3.26-9.83 4.658-11.91 1.399 2.080 4.313 6.964 4.659 11.91h-9.316zM29.813 15.328h-6.95c-0.311-5.098-3.028-9.979-4.635-12.448 6.258 0.887 11.142 6.058 11.585 12.448v0zM16.322 0.848c-8.502 0-15.42 6.917-15.42 15.42s6.918 15.42 15.42 15.42c8.503 0 15.42-6.918 15.42-15.42s-6.917-15.42-15.42-15.42v0z"></path>
</svg>
