<!-- Generated by IcoMoon.io -->
<svg version="1.1" xmlns="http://www.w3.org/2000/svg" width="32" height="32" viewBox="0 0 32 32">
<title>grid</title>
<path fill="#5d6393" d="M26.798 29.693h-15.514v-17.544h17.809v15.249c0 1.265-1.029 2.295-2.295 2.295zM1.773 27.398v-15.249h7.739v17.544h-5.444c-1.265 0-2.295-1.030-2.295-2.295zM4.068 2.654h22.73c1.266 0 2.295 1.030 2.295 2.295v5.428h-27.32v-5.428c0-1.265 1.030-2.295 2.295-2.295zM26.798 0.881h-22.73c-2.242 0-4.067 1.825-4.067 4.067v22.45c0 2.242 1.825 4.067 4.067 4.067h22.73c2.243 0 4.067-1.825 4.067-4.067v-22.45c0-2.242-1.824-4.067-4.067-4.067z"></path>
</svg>
