<!-- Generated by IcoMoon.io -->
<svg version="1.1" xmlns="http://www.w3.org/2000/svg" width="36" height="32" viewBox="0 0 36 32">
<title>monitor</title>
<path fill="#5d6393" d="M32.48 23.463c0 0.249-0.202 0.452-0.452 0.452h-29.332c-0.249 0-0.452-0.202-0.452-0.452v-19.3c0-0.249 0.202-0.453 0.452-0.453h29.332c0.249 0 0.452 0.203 0.452 0.453v19.3zM32.028 1.716h-29.332c-1.349 0-2.446 1.098-2.446 2.447v19.3c0 1.349 1.097 2.446 2.446 2.446h13.37v4.097h-5.993v1.994h13.979v-1.994h-5.992v-4.097h13.968c1.348 0 2.446-1.097 2.446-2.446v-19.3c0-1.349-1.098-2.447-2.446-2.447v0z"></path>
</svg>
