<!-- Generated by IcoMoon.io -->
<svg version="1.1" xmlns="http://www.w3.org/2000/svg" width="32" height="32" viewBox="0 0 32 32">
<title>pie</title>
<path fill="#5d6393" d="M9.365 3.312l0.876 1.66c-4.316 2.277-6.997 6.72-6.997 11.594 0 7.222 5.876 13.097 13.098 13.097 4.994 0 9.484-2.776 11.72-7.245v0l1.679 0.84c-2.555 5.108-7.69 8.282-13.399 8.282-8.257 0-14.975-6.717-14.975-14.974 0-5.574 3.065-10.652 7.999-13.254v0zM16.341 1.592c8.257 0 14.975 6.718 14.975 14.975v0 0.939h-15.913v-15.913zM17.279 3.502v12.126h12.125c-0.461-6.476-5.65-11.665-12.125-12.126v0z"></path>
</svg>
