<!-- Generated by IcoMoon.io -->
<svg version="1.1" xmlns="http://www.w3.org/2000/svg" width="29" height="32" viewBox="0 0 29 32">
<title>security</title>
<path fill="#5d6393" d="M7.394 24.939l3.761 2.75c1.866 1.834 4.889 1.821 6.738-0.028l0.107-0.092 3.572-2.641c2.685-2.711 4.164-6.302 4.164-10.12v-7.208l-10.023-4.043c-0.82-0.331-1.724-0.331-2.545 0l-10.023 4.043v7.132c0 3.809 1.548 7.524 4.249 10.207zM14.509 30.95c-1.672 0-3.344-0.619-4.631-1.859l-3.765-2.752c-3.091-3.040-4.864-7.27-4.864-11.607v-8.412l11.209-4.522c1.278-0.516 2.685-0.515 3.963 0l11.209 4.522v8.487c0 4.347-1.694 8.435-4.767 11.511l-0.107 0.092-3.576 2.642c-1.292 1.263-2.982 1.897-4.672 1.897z"></path>
</svg>
