<!-- Generated by IcoMoon.io -->
<svg version="1.1" xmlns="http://www.w3.org/2000/svg" width="30" height="32" viewBox="0 0 30 32">
<title>stack</title>
<path fill="#5d6393" d="M1.271 22.238l13.441 6.79 12.878-6.783 0.783 1.485-13.643 7.187-14.214-7.18 0.757-1.499zM1.271 15.521l13.441 6.79 12.878-6.783 0.783 1.485-13.643 7.187-14.214-7.18 0.757-1.499zM14.736 1.347l13.521 7.602c0.304 0.174 0.482 0.493 0.469 0.836s-0.211 0.648-0.52 0.798v0l-13.454 6.63-13.55-7.207c-0.304-0.161-0.491-0.475-0.489-0.82s0.194-0.657 0.5-0.814v0l13.522-7.026zM14.705 3.256l-11.441 5.944 11.518 6.127 11.399-5.618-11.476-6.453z"></path>
</svg>
