<!-- Generated by IcoMoon.io -->
<svg version="1.1" xmlns="http://www.w3.org/2000/svg" width="32" height="32" viewBox="0 0 32 32">
<title>upload</title>
<path fill="#5d6393" d="M1.914 20.712v7.335c0 1.005 0.817 1.823 1.823 1.823v0h23.392c1.005 0 1.823-0.818 1.823-1.823v0-7.335h1.773v7.335c0 1.983-1.613 3.596-3.596 3.596v0h-23.392c-1.984 0-3.596-1.613-3.596-3.596v0-7.335h1.773zM15.442 1.523l8.928 8.503-1.222 1.283-6.837-6.512-0.124 16.808-1.773-0.013 0.124-16.822-7.094 6.549-1.203-1.303 9.201-8.493z"></path>
</svg>
