<svg xmlns="http://www.w3.org/2000/svg" width="18" height="18" viewBox="0 0 18 18">
  <path fill="#5D6393" fill-rule="evenodd" d="M68.0739022,380.70232 L59.3473812,380.70232 L59.3473812,370.834067 L69.3647074,370.834067 L69.3647074,379.411514 C69.3647074,380.122978 68.7858643,380.70232 68.0739022,380.70232 M53.9971956,379.411514 L53.9971956,370.834067 L58.3502354,370.834067 L58.3502354,380.70232 L55.2880008,380.70232 C54.5765373,380.70232 53.9971956,380.122978 53.9971956,379.411514 M55.2880008,365.492855 L68.0739022,365.492855 C68.7858643,365.492855 69.3647074,366.072197 69.3647074,366.783661 L69.3647074,369.836921 L53.9971956,369.836921 L53.9971956,366.783661 C53.9971956,366.072197 54.5765373,365.492855 55.2880008,365.492855 M68.0739022,364.49571 L55.2880008,364.49571 C54.0266114,364.49571 53.0000499,365.522271 53.0000499,366.783661 L53.0000499,379.411514 C53.0000499,380.672904 54.0266114,381.699465 55.2880008,381.699465 L68.0739022,381.699465 C69.3357902,381.699465 70.3618532,380.672904 70.3618532,379.411514 L70.3618532,366.783661 C70.3618532,365.522271 69.3357902,364.49571 68.0739022,364.49571" transform="translate(-53 -364)"/>
</svg>
