<svg xmlns="http://www.w3.org/2000/svg" width="18" height="18" viewBox="0 0 18 18">
  <path fill="#5D6393" fill-rule="evenodd" d="M63.4348016,477.654121 C64.3776076,476.401808 65.7309733,474.02945 65.8648285,470.679896 L69.7699077,470.679896 C69.5249474,474.21145 66.8674196,477.081665 63.4348016,477.654121 L63.4348016,477.654121 Z M54.5924242,470.679896 L58.4969743,470.679896 C58.6308295,474.02945 59.9847243,476.401808 60.9270012,477.654121 C57.4943832,477.081665 54.8368554,474.21145 54.5924242,470.679896 L54.5924242,470.679896 Z M61.1090019,462.620016 C60.2048181,464.008829 58.6763296,466.754183 58.5012069,469.621752 L54.5924242,469.621752 C54.841088,466.027767 57.588558,463.11893 61.1090019,462.620016 L61.1090019,462.620016 Z M64.8066849,470.679896 C64.6474343,474.258009 62.936945,476.638832 62.1798433,477.519207 C61.4216833,476.641477 59.7138395,474.270706 59.5551179,470.679896 L64.8066849,470.679896 Z M59.5609377,469.621752 C59.754578,466.839893 61.3947007,464.092423 62.1809014,462.922645 C62.9676312,464.092423 64.6072248,466.839893 64.8013942,469.621752 L59.5609377,469.621752 Z M69.7699077,469.621752 L65.8605959,469.621752 C65.6854732,466.754183 64.1575137,464.008829 63.25333,462.620016 C66.7732448,463.11893 69.5207148,466.027767 69.7699077,469.621752 L69.7699077,469.621752 Z M62.1809014,461.477221 C57.3986212,461.477221 53.5072979,465.368015 53.5072979,470.150824 C53.5072979,474.933104 57.3986212,478.824428 62.1809014,478.824428 C66.9637107,478.824428 70.8545049,474.933104 70.8545049,470.150824 C70.8545049,465.368015 66.9637107,461.477221 62.1809014,461.477221 L62.1809014,461.477221 Z" transform="translate(-53 -461)"/>
</svg>
