<svg xmlns="http://www.w3.org/2000/svg" width="14" height="16" viewBox="0 0 14 16">
  <path fill="#5D6393" fill-rule="evenodd" d="M21.7592208,22.2156784 C21.7592208,22.3519732 21.6485089,22.4626851 21.5122141,22.4626851 L18.4978498,22.4626851 L18.4978498,15.2937559 L13.1435379,15.2937559 L13.1435379,22.4626851 L10.1291736,22.4626851 C9.99287884,22.4626851 9.88216689,22.3519732 9.88216689,22.2156784 L9.88216689,13.9074306 L15.8209144,9.13182012 L21.7592208,13.9074306 L21.7592208,22.2156784 Z M14.0257048,22.4626851 L17.6156829,22.4626851 L17.6156829,16.1759228 L14.0257048,16.1759228 L14.0257048,22.4626851 Z M15.8209144,8 L9,13.4848726 L9,22.2156784 C9,22.8380471 9.5063638,23.344852 10.1291736,23.344852 L21.5122141,23.344852 C22.1350239,23.344852 22.6413877,22.8380471 22.6413877,22.2156784 L22.6413877,13.4848726 L15.8209144,8 Z" transform="translate(-9 -8)"/>
</svg>
