<svg xmlns="http://www.w3.org/2000/svg" width="17" height="17" viewBox="0 0 17 17">
  <path fill="#5D6393" fill-rule="evenodd" d="M57.975159,559.759757 L58.4403275,560.641733 C56.1473909,561.851271 54.7229681,564.211515 54.7229681,566.801102 C54.7229681,570.637621 57.8445329,573.758687 61.6810512,573.758687 C64.3339575,573.758687 66.7196287,572.283908 67.9072293,569.909704 L67.9072293,569.909704 L68.7991762,570.355927 C67.4415622,573.069659 64.71387,574.755832 61.6810512,574.755832 C57.294607,574.755832 53.7258224,571.187546 53.7258224,566.801102 C53.7258224,563.840078 55.3541614,561.1423 57.975159,559.759757 L57.975159,559.759757 Z M61.6810512,558.845824 C66.0674954,558.845824 69.63628,562.414608 69.63628,566.801052 L69.63628,566.801052 L69.63628,567.299625 L61.1824783,567.299625 L61.1824783,558.845824 Z M62.1796241,559.860419 L62.1796241,566.302479 L68.6211857,566.302479 C68.3763864,562.862327 65.6197769,560.105219 62.1796241,559.860419 L62.1796241,559.860419 Z" transform="translate(-53 -558)"/>
</svg>
