<svg xmlns="http://www.w3.org/2000/svg" width="18" height="18" viewBox="0 0 18 18">
  <path fill="#5D6393" fill-rule="evenodd" d="M60.3903458,327.792781 L60.3903458,334.684554 L53,334.684554 L53,327.792781 L60.3903458,327.792781 Z M70.3618033,327.792781 L70.3618033,334.684554 L62.9714575,334.684554 L62.9714575,327.792781 L70.3618033,327.792781 Z M59.3932,328.789927 L53.9971458,328.789927 L53.9971458,333.687408 L59.3932,333.687408 L59.3932,328.789927 Z M69.3646575,328.789927 L63.9686033,328.789927 L63.9686033,333.687408 L69.3646575,333.687408 L69.3646575,328.789927 Z M60.3903458,317.821324 L60.3903458,324.713096 L53,324.713096 L53,317.821324 L60.3903458,317.821324 Z M70.3618033,317.821324 L70.3618033,324.713096 L62.9714575,324.713096 L62.9714575,317.821324 L70.3618033,317.821324 Z M59.3932,318.818469 L53.9971458,318.818469 L53.9971458,323.715951 L59.3932,323.715951 L59.3932,318.818469 Z M69.3646575,318.818469 L63.9686033,318.818469 L63.9686033,323.715951 L69.3646575,323.715951 L69.3646575,318.818469 Z" transform="translate(-53 -317)"/>
</svg>
