<svg xmlns="http://www.w3.org/2000/svg" width="18" height="19" viewBox="0 0 18 19">
  <path fill="#5D6393" fill-rule="evenodd" d="M53.7544405,522.204107 L61.7350965,526.235568 L69.3812102,522.208096 L69.8458801,523.090071 L61.745068,527.357357 L53.3052263,523.09406 L53.7544405,522.204107 Z M53.7544405,518.215524 L61.7350965,522.246985 L69.3812102,518.219513 L69.8458801,519.101488 L61.745068,523.368774 L53.3052263,519.105477 L53.7544405,518.215524 Z M61.7493058,509.799863 L69.7773263,514.313444 C69.9578097,514.416648 70.0635071,514.606106 70.0560285,514.810022 C70.0490485,515.013939 69.9308868,515.194921 69.7474119,515.283667 L69.7474119,515.283667 L61.7592773,519.220398 L53.7138068,514.941147 C53.5333234,514.845421 53.4221417,514.658955 53.4236225,514.45454 C53.4251331,514.249626 53.5388077,514.064656 53.7207868,513.971423 L53.7207868,513.971423 L61.7493058,509.799863 Z M61.7308586,510.93312 L54.9378032,514.462517 L61.7767274,518.100603 L68.5448542,514.764652 L61.7308586,510.93312 Z" transform="translate(-53 -509)"/>
</svg>
