<svg xmlns="http://www.w3.org/2000/svg" width="18" height="18" viewBox="0 0 18 18">
  <path fill="#8389B7" d="M24,16 C28.418278,16 32,19.581722 32,24 C32,25.9272565 31.3185016,27.6953406 30.1833437,29.0764131 L33.7081449,32.407938 C34.0091943,32.6924413 34.0226076,33.1671256 33.7381043,33.468175 C33.4794649,33.7418563 33.0636512,33.7778217 32.7640033,33.5683475 L32.6778673,33.4981344 L29.1258596,30.1423699 C27.7376619,31.3020825 25.9503346,32 24,32 C19.581722,32 16,28.418278 16,24 C16,19.581722 19.581722,16 24,16 Z M24,17.5 C20.4101491,17.5 17.5,20.4101491 17.5,24 C17.5,27.5898509 20.4101491,30.5 24,30.5 C27.5898509,30.5 30.5,27.5898509 30.5,24 C30.5,20.4101491 27.5898509,17.5 24,17.5 Z" transform="translate(-16 -16)"/>
</svg>
