<svg xmlns="http://www.w3.org/2000/svg" width="17" height="19" viewBox="0 0 17 19">
  <path fill="#5D6393" fill-rule="evenodd" d="M57.3904599,426.807557 L59.6234448,428.440653 C60.731496,429.52957 62.5261,429.521692 63.6240218,428.42377 L63.6876123,428.369184 L65.8086103,426.801367 C67.402876,425.191907 68.2807632,423.059654 68.2807632,420.792342 L68.2807632,416.512641 L62.3297009,414.111958 C61.8429237,413.915558 61.3060619,413.915558 60.818722,414.111958 L54.8676596,416.512641 L54.8676596,420.747322 C54.8676596,423.009007 55.7866275,425.21498 57.3904599,426.807557 M61.6150107,430.376506 C60.6223228,430.376506 59.629635,430.009032 58.8654229,429.272957 L56.630187,427.638736 C54.7950651,425.834003 53.7421632,423.321895 53.7421632,420.747322 L53.7421632,415.752931 L60.3977863,413.06806 C61.1563709,412.761925 61.992052,412.762487 62.7506366,413.06806 L69.4062596,415.752931 L69.4062596,420.792342 C69.4062596,423.373668 68.4006286,425.800801 66.5756361,427.626919 L66.5120456,427.681505 L64.3887966,429.250447 C63.6217708,430.000591 62.6183907,430.376506 61.6150107,430.376506" transform="translate(-53 -412)"/>
</svg>
