<svg xmlns="http://www.w3.org/2000/svg" width="18" height="18" viewBox="0 0 18 18">
  <path fill="#5D6393" fill-rule="evenodd" d="M54.0765684,279.650472 L54.0765684,283.776163 C54.0765684,284.341544 54.5362526,284.801727 55.1021328,284.801727 L55.1021328,284.801727 L68.2599696,284.801727 C68.8253513,284.801727 69.285534,284.341544 69.285534,283.776163 L69.285534,283.776163 L69.285534,279.650472 L70.2826798,279.650472 L70.2826798,283.776163 C70.2826798,284.89147 69.3752771,285.798873 68.2599696,285.798873 L68.2599696,285.798873 L55.1021328,285.798873 C53.9863267,285.798873 53.0794227,284.89147 53.0794227,283.776163 L53.0794227,283.776163 L53.0794227,279.650472 L54.0765684,279.650472 Z M61.6861865,268.856718 L66.7083111,273.639528 L66.0207791,274.361461 L62.1747879,270.698446 L62.1049877,280.152884 L61.107842,280.145405 L61.1776422,270.682991 L57.1870649,274.366946 L56.5105015,273.634043 L61.6861865,268.856718 Z" transform="translate(-53 -268)"/>
</svg>
