<svg xmlns="http://www.w3.org/2000/svg" width="18" height="16" viewBox="0 0 18 16">
  <path fill="#5D6393" fill-rule="evenodd" d="M69.2400143,616.731468 C69.2400143,616.856112 69.138804,616.957322 69.0141608,616.957322 L54.3481411,616.957322 C54.2234978,616.957322 54.1222875,616.856112 54.1222875,616.731468 L54.1222875,607.08159 C54.1222875,606.956947 54.2234978,606.855238 54.3481411,606.855238 L69.0141608,606.855238 C69.138804,606.855238 69.2400143,606.956947 69.2400143,607.08159 L69.2400143,616.731468 Z M69.0141608,605.858092 L54.3481411,605.858092 C53.673572,605.858092 53.1251418,606.407021 53.1251418,607.08159 L53.1251418,616.731468 C53.1251418,617.406037 53.673572,617.954468 54.3481411,617.954468 L61.0330062,617.954468 L61.0330062,620.003104 L58.0365832,620.003104 L58.0365832,621.000249 L65.0260764,621.000249 L65.0260764,620.003104 L62.0301519,620.003104 L62.0301519,617.954468 L69.0141608,617.954468 C69.6882313,617.954468 70.2371601,617.406037 70.2371601,616.731468 L70.2371601,607.08159 C70.2371601,606.407021 69.6882313,605.858092 69.0141608,605.858092 L69.0141608,605.858092 Z" transform="translate(-53 -605)"/>
</svg>
