<?xml version="1.0" encoding="utf-8"?>
<!-- Generator: Adobe Illustrator 24.3.0, SVG Export Plug-In . SVG Version: 6.00 Build 0)  -->
<svg version="1.1" id="Layer_1" xmlns="http://www.w3.org/2000/svg" xmlns:xlink="http://www.w3.org/1999/xlink" x="0px" y="0px"
	 viewBox="0 0 1024 1024" style="enable-background:new 0 0 1024 1024;" xml:space="preserve">
<style type="text/css">
	.st0{fill:url(#Path_106667_1_);}
	.st1{fill:url(#SVGID_1_);}
	.st2{fill:url(#Path_106669_1_);}
	.st3{fill:#FFFFFF;}
	.st4{fill:url(#SVGID_2_);}
	.st5{fill:url(#Path_106672_1_);}
	.st6{fill:url(#SVGID_3_);}
	.st7{fill:url(#SVGID_4_);}
</style>
<linearGradient id="SVGID_1_" gradientUnits="userSpaceOnUse" x1="824.596" y1="661.2206" x2="124.3884" y2="661.2206" gradientTransform="matrix(1 0 0 -1 0 1024)">
	<stop  offset="0" style="stop-color:#159FFF"/>
	<stop  offset="6.000000e-02" style="stop-color:#159FFF"/>
	<stop  offset="0.33" style="stop-color:#15B2FF"/>
	<stop  offset="0.808" style="stop-color:#15CFFF"/>
	<stop  offset="1" style="stop-color:#15EEFF"/>
</linearGradient>
<path class="st1" d="M108.8,307.7L252.2,59.4c20-33.8,56.1-54.6,95.3-55h414.3c0,107.9-87.5,173.9-195.3,173.9h-182L281.2,362.8
	l94.1,184.4H423c107.9,0,201.5,66.1,201.5,173.9H347.6c-39.3-0.4-75.5-21.3-95.5-55.1L108.9,418C89.5,383.8,89.5,341.9,108.8,307.7z
	"/>
<linearGradient id="Path_106669_1_" gradientUnits="userSpaceOnUse" x1="-350761.0312" y1="100441.3828" x2="-350761.0312" y2="100436.2109" gradientTransform="matrix(7.110596e-03 0 0 -3.198242e-02 2766.0574 3532.6018)">
	<stop  offset="6.000000e-02" style="stop-color:#159FFF"/>
	<stop  offset="0.33" style="stop-color:#15B2FF"/>
	<stop  offset="0.596" style="stop-color:#15CFFF"/>
	<stop  offset="0.812" style="stop-color:#15E2FF"/>
	<stop  offset="1" style="stop-color:#15EEFF"/>
</linearGradient>
<path id="Path_106669" class="st2" d="M271.9,320.3v0.2C272,320.3,271.9,320.3,271.9,320.3z"/>
<linearGradient id="SVGID_2_" gradientUnits="userSpaceOnUse" x1="1002.5231" y1="363.345" x2="302.289" y2="363.345" gradientTransform="matrix(1 0 0 -1 0 1024)">
	<stop  offset="0" style="stop-color:#79FF55"/>
	<stop  offset="6.000000e-02" style="stop-color:#79FF55"/>
	<stop  offset="0.635" style="stop-color:#0AD67F"/>
	<stop  offset="1" style="stop-color:#00D383"/>
</linearGradient>
<path class="st4" d="M925.3,715.7L782,964c-20,33.8-56.1,54.6-95.4,55H272.3c0-107.9,87.5-173.9,195.3-173.9h182l103.3-184.4
	l-94-184.4h-41.5c-107.9,0-207.6-66.1-207.6-173.9h276.9c39.3,0.4,75.5,21.3,95.5,55.1l143.2,248.1
	C944.6,639.7,944.7,681.5,925.3,715.7L925.3,715.7z"/>
<linearGradient id="Path_106672_1_" gradientUnits="userSpaceOnUse" x1="-173075.7812" y1="90550.3281" x2="-173075.7812" y2="90555.5" gradientTransform="matrix(1.202393e-02 0 0 -3.198242e-02 2849.4346 3608.4177)">
	<stop  offset="6.000000e-02" style="stop-color:#79FF55"/>
	<stop  offset="1" style="stop-color:#00D383"/>
</linearGradient>
<path id="Path_106672" class="st5" d="M768.4,712.4v-0.2C768.3,712.3,768.3,712.4,768.4,712.4z"/>
<linearGradient id="SVGID_3_" gradientUnits="userSpaceOnUse" x1="815.1567" y1="542.5176" x2="361.7116" y2="542.5176" gradientTransform="matrix(1 0 0 -1 0 1024)">
	<stop  offset="0" style="stop-color:#00BE86"/>
	<stop  offset="1" style="stop-color:#2FF235"/>
</linearGradient>
<path class="st6" d="M803.1,553L753,660.7l-94.1-184.4h-41.5c-107.9,0-207.6-66.1-207.6-173.9h276.9c39.3,0.4,75.5,21.3,95.5,55.1
	C820.8,424.6,842.2,485.9,803.1,553z"/>
<linearGradient id="SVGID_4_" gradientUnits="userSpaceOnUse" x1="221.0613" y1="482.0481" x2="672.6172" y2="482.0481" gradientTransform="matrix(1 0 0 -1 0 1024)">
	<stop  offset="6.000000e-02" style="stop-color:#159FFF"/>
	<stop  offset="1" style="stop-color:#3FECFF"/>
</linearGradient>
<path class="st7" d="M234.1,453.6l47.1-90.8l94.1,184.4h47.6c107.9,0,201.5,66.1,201.5,173.9H347.6c-39.3-0.4-75.5-21.3-95.5-55.1
	C213.3,598.9,195.1,520.7,234.1,453.6z"/>
</svg>
